/* XPM */
static char *collectible_2[] = {
/* columns rows colors chars-per-pixel */
"64 64 3 1",
"  c #333333",
". c #FFA500",
"# c #FF8C00",
/* pixels */
"                                                                ",
"                                                                ",
"                                                                ",
"                                                                ",
"                                                                ",
"                                                                ",
"                                                                ",
"                                                                ",
"                                                                ",
"                                                                ",
"                                                                ",
"                          ..........                            ",
"                        ..............                          ",
"                       ................                         ",
"                      ..................                        ",
"                     ....................                       ",
"                    ......................                      ",
"                    ......................                      ",
"                   ..........##..........                       ",
"                   .........####.........                       ",
"                   ........######........                       ",
"                   ........######........                       ",
"                   ........######........                       ",
"                   ........######........                       ",
"                   ........######........                       ",
"                   ........######........                       ",
"                   ........######........                       ",
"                   ........######........                       ",
"                   ........######........                       ",
"                   ........######........                       ",
"                   ........######........                       ",
"                   ........######........                       ",
"                   ........######........                       ",
"                   ........######........                       ",
"                   ........######........                       ",
"                   ........######........                       ",
"                   ........######........                       ",
"                   ........######........                       ",
"                   ........######........                       ",
"                   ........######........                       ",
"                   ........######........                       ",
"                   ........######........                       ",
"                   ........######........                       ",
"                   .........####.........                       ",
"                   ..........##..........                       ",
"                    ......................                      ",
"                    ......................                      ",
"                     ....................                       ",
"                      ..................                        ",
"                       ................                         ",
"                        ..............                          ",
"                          ..........                            ",
"                                                                ",
"                                                                ",
"                                                                ",
"                                                                ",
"                                                                ",
"                                                                ",
"                                                                ",
"                                                                ",
"                                                                ",
"                                                                ",
"                                                                ",
"                                                                ",
};
