/* XPM */
static char *enemy[] = {
/* columns rows colors chars-per-pixel */
"64 64 3 1",
"  c None",
". c #8B0000",
"o c #FF0000",
/* pixels */
"                                                                ",
"                                                                ",
"                                                                ",
"                                                                ",
"                                                                ",
"                                                                ",
"                                                                ",
"                                                                ",
"                           ........                             ",
"                          ..........                            ",
"                         ............                           ",
"                         ............                           ",
"                         ............                           ",
"                          ..........                            ",
"                           ........                             ",
"                                                                ",
"                      oooooooooooooooo                          ",
"                     oooooooooooooooooo                         ",
"                    oooooooooooooooooooo                        ",
"                    oooooooooooooooooooo                        ",
"                    oooooooooooooooooooo                        ",
"                     oooooooooooooooooo                         ",
"                      oooooooooooooooo                          ",
"                                                                ",
"                         ............                           ",
"                        ..............                          ",
"                        ..............                          ",
"                        ..............                          ",
"                         ............                           ",
"                                                                ",
"                      ....          ....                        ",
"                     ......        ......                       ",
"                     ......        ......                       ",
"                      ....          ....                        ",
"                                                                ",
"                                                                ",
"                        oooooooooooo                            ",
"                       oooooooooooooo                           ",
"                       oooooooooooooo                           ",
"                        oooooooooooo                            ",
"                                                                ",
"                                                                ",
"                                                                ",
"                                                                ",
"                                                                ",
"                                                                ",
"                                                                ",
"                                                                ",
"                                                                ",
"                                                                ",
"                                                                ",
"                                                                ",
"                                                                ",
"                                                                ",
"                                                                ",
"                                                                ",
"                                                                ",
"                                                                ",
"                                                                ",
"                                                                ",
"                                                                ",
"                                                                ",
"                                                                ",
"                                                                "
};
