/* XPM */
static char *exit_img[] = {
/* columns rows colors chars-per-pixel */
"64 64 4 1",
"  c #333333",
". c #00FF00",
"# c #005500",
"@ c #00AA00",
/* pixels */
"                                                                ",
"                                                                ",
"          ############################################          ",
"          ############################################          ",
"          ##........................................##          ",
"          ##........................................##          ",
"          ##........................................##          ",
"          ##........................................##          ",
"          ##........................................##          ",
"          ##........................................##          ",
"          ##........................................##          ",
"          ##........................................##          ",
"          ##........................................##          ",
"          ##........................................##          ",
"          ##........................................##          ",
"          ##........................................##          ",
"          ##........................................##          ",
"          ##........................................##          ",
"          ##........................................##          ",
"          ##........................................##          ",
"          ##..................@@@@..................##          ",
"          ##..................@@@@..................##          ",
"          ##..................@@@@..................##          ",
"          ##..................@@@@..................##          ",
"          ##........................................##          ",
"          ##........................................##          ",
"          ##........................................##          ",
"          ##........................................##          ",
"          ##........................................##          ",
"          ##........................................##          ",
"          ##........................................##          ",
"          ##........................................##          ",
"          ##........................................##          ",
"          ##........................................##          ",
"          ##........................................##          ",
"          ##........................................##          ",
"          ##........................................##          ",
"          ##........................................##          ",
"          ##........................................##          ",
"          ##........................................##          ",
"          ##........................................##          ",
"          ##........................................##          ",
"          ##........................................##          ",
"          ##........................................##          ",
"          ##........................................##          ",
"          ##........................................##          ",
"          ##........................................##          ",
"          ##........................................##          ",
"          ##........................................##          ",
"          ##........................................##          ",
"          ##........................................##          ",
"          ##........................................##          ",
"          ##........................................##          ",
"          ##........................................##          ",
"          ##........................................##          ",
"          ##........................................##          ",
"          ##........................................##          ",
"          ##........................................##          ",
"          ############################################          ",
"          ############################################          ",
"                                                                ",
"                                                                ",
"                                                                ",
"                                                                ",
};
