/* XPM */
static char *player[] = {
/* columns rows colors chars-per-pixel */
"64 64 3 1",
"  c #333333",
". c #FF0000",
"o c #FFFF00",
/* pixels */
"                                                                ",
"                                                                ",
"                                                                ",
"                                                                ",
"                                                                ",
"                                                                ",
"                                                                ",
"                                                                ",
"                                                                ",
"                                                                ",
"                           ........                             ",
"                          ..........                            ",
"                         ............                           ",
"                         ............                           ",
"                         ............                           ",
"                          ..........                            ",
"                           ........                             ",
"                                                                ",
"                      ..................                        ",
"                     ....................                       ",
"                    ......................                      ",
"                    ......................                      ",
"                    ......................                      ",
"                     ....................                       ",
"                      ..................                        ",
"                                                                ",
"                         ............                           ",
"                        ..............                          ",
"                        ..............                          ",
"                        ..............                          ",
"                         ............                           ",
"                                                                ",
"                        oo          oo                          ",
"                       oooo        oooo                         ",
"                       oooo        oooo                         ",
"                        oo          oo                          ",
"                                                                ",
"                                                                ",
"                                                                ",
"                                                                ",
"                                                                ",
"                                                                ",
"                                                                ",
"                                                                ",
"                                                                ",
"                                                                ",
"                                                                ",
"                                                                ",
"                                                                ",
"                                                                ",
"                                                                ",
"                                                                ",
"                                                                ",
"                                                                ",
"                                                                ",
"                                                                ",
"                                                                ",
"                                                                ",
"                                                                ",
"                                                                ",
"                                                                ",
"                                                                ",
"                                                                ",
"                                                                "
};
